<svg width="48" height="44" viewBox="0 0 48 44" fill="none" xmlns="http://www.w3.org/2000/svg">
<g clip-path="url(#clip0_8_2649)">
<path d="M33.0749 24.175L21.8249 12.925C19.9499 10.975 16.8749 10.975 14.9249 12.85C12.9749 14.725 12.9749 17.875 14.9249 19.75L14.9999 19.825L17.0999 22L18.1499 20.95L15.9749 18.775C14.6999 17.5 14.6999 15.325 15.9749 14.05C17.2499 12.775 19.4249 12.7 20.6999 13.975C20.6999 13.975 20.6999 13.975 20.7749 14.05L31.9499 25.225C33.2999 26.5 33.2999 28.675 32.0249 29.95C30.7499 31.3 28.5749 31.3 27.2999 30.025C27.2999 30.025 27.2999 30.025 27.2249 29.95L21.6749 24.4C20.9249 23.65 20.9999 22.45 21.6749 21.775C22.4249 21.1 23.5499 21.1 24.2999 21.775L27.3749 24.85L28.4249 23.8L25.2749 20.65C23.9249 19.375 21.8249 19.45 20.5499 20.8C19.3499 22.075 19.3499 24.1 20.5499 25.45L26.1749 31.075C28.0499 33.025 31.1249 33.025 33.0749 31.15C35.0249 29.275 35.0249 26.125 33.0749 24.175C33.0749 24.25 33.0749 24.175 33.0749 24.175Z" fill="white"/>
</g>
<defs>
<clipPath id="clip0_8_2649">
<rect width="24" height="24" fill="white" transform="translate(12 10)"/>
</clipPath>
</defs>
</svg>
