<svg width="25" height="24" viewBox="0 0 25 24" fill="none" xmlns="http://www.w3.org/2000/svg">
<g clip-path="url(#clip0_1324_762)">
<path d="M21.5 19.5H19.25V18H21.5V6H19.25V4.5H21.5C21.8977 4.50046 22.279 4.65864 22.5602 4.93984C22.8414 5.22105 22.9995 5.60232 23 6V18C22.9995 18.3977 22.8413 18.7789 22.5601 19.0601C22.2789 19.3413 21.8977 19.4995 21.5 19.5Z" fill="black"/>
<path d="M17.75 13.5C18.5784 13.5 19.25 12.8284 19.25 12C19.25 11.1716 18.5784 10.5 17.75 10.5C16.9216 10.5 16.25 11.1716 16.25 12C16.25 12.8284 16.9216 13.5 17.75 13.5Z" fill="black"/>
<path d="M12.5 13.5C13.3284 13.5 14 12.8284 14 12C14 11.1716 13.3284 10.5 12.5 10.5C11.6716 10.5 11 11.1716 11 12C11 12.8284 11.6716 13.5 12.5 13.5Z" fill="black"/>
<path d="M7.25 13.5C8.07843 13.5 8.75 12.8284 8.75 12C8.75 11.1716 8.07843 10.5 7.25 10.5C6.42157 10.5 5.75 11.1716 5.75 12C5.75 12.8284 6.42157 13.5 7.25 13.5Z" fill="black"/>
<path d="M5.75 19.5H3.5C3.10232 19.4995 2.72105 19.3414 2.43984 19.0602C2.15864 18.779 2.00046 18.3977 2 18V6C2.0004 5.6023 2.15856 5.221 2.43978 4.93978C2.721 4.65856 3.1023 4.5004 3.5 4.5H5.75V6H3.5V18H5.75V19.5Z" fill="black"/>
</g>
<defs>
<clipPath id="clip0_1324_762">
<rect width="24" height="24" fill="white" transform="translate(0.5)"/>
</clipPath>
</defs>
</svg>
