<svg width="25" height="24" viewBox="0 0 25 24" fill="none" xmlns="http://www.w3.org/2000/svg">
<g clip-path="url(#clip0_1208_3158)">
<path d="M12.5 14.75C11.6337 14.7507 10.7807 14.5368 10.0173 14.1273C9.25389 13.7178 8.60383 13.1256 8.12524 12.4035L9.37474 11.5729C9.71688 12.0886 10.1813 12.5116 10.7266 12.8042C11.2719 13.0969 11.8811 13.25 12.5 13.25C13.1188 13.25 13.7281 13.0969 14.2734 12.8042C14.8187 12.5116 15.2831 12.0886 15.6252 11.5729L16.8747 12.4035C16.3962 13.1256 15.7461 13.7178 14.9827 14.1273C14.2193 14.5368 13.3663 14.7507 12.5 14.75V14.75Z" fill="white"/>
<path d="M15.5 6.50001C15.2033 6.50001 14.9133 6.58798 14.6666 6.75281C14.42 6.91763 14.2277 7.1519 14.1142 7.42599C14.0006 7.70008 13.9709 8.00167 14.0288 8.29265C14.0867 8.58362 14.2296 8.85089 14.4393 9.06067C14.6491 9.27045 14.9164 9.41331 15.2074 9.47119C15.4983 9.52907 15.7999 9.49936 16.074 9.38583C16.3481 9.2723 16.5824 9.08004 16.7472 8.83337C16.912 8.58669 17 8.29668 17 8.00001C17.0019 7.80249 16.9645 7.60656 16.8898 7.42369C16.8151 7.24083 16.7047 7.07469 16.565 6.93502C16.4253 6.79534 16.2592 6.68492 16.0763 6.61023C15.8935 6.53554 15.6975 6.49807 15.5 6.50001V6.50001Z" fill="white"/>
<path d="M9.5 6.50001C9.20333 6.50001 8.91332 6.58798 8.66665 6.75281C8.41997 6.91763 8.22771 7.1519 8.11418 7.42599C8.00065 7.70008 7.97094 8.00167 8.02882 8.29265C8.0867 8.58362 8.22956 8.85089 8.43934 9.06067C8.64912 9.27045 8.91639 9.41331 9.20737 9.47119C9.49834 9.52907 9.79994 9.49936 10.074 9.38583C10.3481 9.2723 10.5824 9.08004 10.7472 8.83337C10.912 8.58669 11 8.29668 11 8.00001C11.0019 7.80249 10.9645 7.60656 10.8898 7.42369C10.8151 7.24083 10.7047 7.07469 10.565 6.93502C10.4253 6.79534 10.2592 6.68492 10.0763 6.61023C9.89345 6.53554 9.69752 6.49807 9.5 6.50001V6.50001Z" fill="white"/>
<path d="M13.8018 23L12.5 22.25L15.5 17H20C20.1971 17.0003 20.3923 16.9618 20.5744 16.8865C20.7566 16.8112 20.9221 16.7008 21.0614 16.5614C21.2008 16.4221 21.3112 16.2566 21.3865 16.0744C21.4618 15.8923 21.5003 15.6971 21.5 15.5V5C21.5003 4.80292 21.4618 4.60772 21.3865 4.42558C21.3112 4.24344 21.2008 4.07795 21.0614 3.93859C20.9221 3.79924 20.7566 3.68876 20.5744 3.6135C20.3923 3.53823 20.1971 3.49966 20 3.5H5C4.80292 3.49966 4.60772 3.53823 4.42558 3.6135C4.24344 3.68876 4.07795 3.79924 3.93859 3.93859C3.79924 4.07795 3.68876 4.24344 3.6135 4.42558C3.53823 4.60772 3.49966 4.80292 3.5 5V15.5C3.49966 15.6971 3.53823 15.8923 3.6135 16.0744C3.68876 16.2566 3.79924 16.4221 3.93859 16.5614C4.07795 16.7008 4.24344 16.8112 4.42558 16.8865C4.60772 16.9618 4.80292 17.0003 5 17H11.75V18.5H5C4.60601 18.5001 4.21588 18.4225 3.85187 18.2718C3.48786 18.121 3.15712 17.9001 2.87853 17.6215C2.59994 17.3429 2.37896 17.0121 2.22822 16.6481C2.07748 16.2841 1.99993 15.894 2 15.5V5C1.99988 4.606 2.0774 4.21584 2.22812 3.85181C2.37884 3.48778 2.59982 3.15702 2.87842 2.87842C3.15702 2.59982 3.48778 2.37884 3.85181 2.22812C4.21584 2.0774 4.606 1.99988 5 2H20C20.394 1.99988 20.7842 2.0774 21.1482 2.22812C21.5122 2.37884 21.843 2.59982 22.1216 2.87842C22.4002 3.15702 22.6212 3.48778 22.7719 3.85181C22.9226 4.21584 23.0001 4.606 23 5V15.5C23.0001 15.894 22.9225 16.2841 22.7718 16.6481C22.621 17.0121 22.4001 17.3429 22.1215 17.6215C21.8429 17.9001 21.5121 18.121 21.1481 18.2718C20.7841 18.4225 20.394 18.5001 20 18.5H16.3735L13.8018 23Z" fill="white"/>
</g>
<defs>
<clipPath id="clip0_1208_3158">
<rect width="24" height="24" fill="white" transform="translate(0.5)"/>
</clipPath>
</defs>
</svg>
