<svg width="25" height="24" viewBox="0 0 25 24" fill="none" xmlns="http://www.w3.org/2000/svg">
<g clip-path="url(#clip0_1324_811)">
<path d="M8 10.5C8.82843 10.5 9.5 9.82843 9.5 9C9.5 8.17157 8.82843 7.5 8 7.5C7.17157 7.5 6.5 8.17157 6.5 9C6.5 9.82843 7.17157 10.5 8 10.5Z" fill="black"/>
<path d="M12.5 8.25C13.3284 8.25 14 7.57843 14 6.75C14 5.92157 13.3284 5.25 12.5 5.25C11.6716 5.25 11 5.92157 11 6.75C11 7.57843 11.6716 8.25 12.5 8.25Z" fill="black"/>
<path d="M17 10.5C17.8284 10.5 18.5 9.82843 18.5 9C18.5 8.17157 17.8284 7.5 17 7.5C16.1716 7.5 15.5 8.17157 15.5 9C15.5 9.82843 16.1716 10.5 17 10.5Z" fill="black"/>
<path d="M17.75 15C18.5784 15 19.25 14.3284 19.25 13.5C19.25 12.6716 18.5784 12 17.75 12C16.9216 12 16.25 12.6716 16.25 13.5C16.25 14.3284 16.9216 15 17.75 15Z" fill="black"/>
<path d="M14.75 18.75C15.5784 18.75 16.25 18.0784 16.25 17.25C16.25 16.4216 15.5784 15.75 14.75 15.75C13.9216 15.75 13.25 16.4216 13.25 17.25C13.25 18.0784 13.9216 18.75 14.75 18.75Z" fill="black"/>
<path d="M12.905 1.5C11.4924 1.44548 10.0834 1.67675 8.76234 2.17996C7.4413 2.68316 6.23548 3.44794 5.21716 4.42844C4.19884 5.40894 3.389 6.58497 2.83618 7.88603C2.28336 9.18708 1.99895 10.5864 2 12C1.99997 12.556 2.12818 13.1045 2.37466 13.6029C2.62115 14.1012 2.97927 14.536 3.42117 14.8735C3.86308 15.2109 4.37685 15.4418 4.92255 15.5483C5.46825 15.6548 6.03116 15.634 6.5675 15.4875L7.4075 15.255C7.74166 15.1638 8.09237 15.151 8.4323 15.2175C8.77223 15.2841 9.0922 15.4282 9.3673 15.6387C9.64239 15.8492 9.86516 16.1203 10.0183 16.431C10.1714 16.7418 10.2507 17.0836 10.25 17.43V20.25C10.25 20.8467 10.4871 21.419 10.909 21.841C11.331 22.2629 11.9033 22.5 12.5 22.5C13.9136 22.5011 15.3129 22.2166 16.614 21.6638C17.915 21.111 19.0911 20.3012 20.0716 19.2828C21.0521 18.2645 21.8168 17.0587 22.32 15.7377C22.8233 14.4166 23.0545 13.0076 23 11.595C22.8912 8.95251 21.7927 6.44755 19.9226 4.57744C18.0525 2.70733 15.5475 1.60882 12.905 1.5ZM18.9875 18.2325C18.1501 19.1093 17.1432 19.8067 16.028 20.2825C14.9127 20.7582 13.7125 21.0023 12.5 21C12.3011 21 12.1103 20.921 11.9697 20.7803C11.829 20.6397 11.75 20.4489 11.75 20.25V17.43C11.75 16.4354 11.3549 15.4816 10.6517 14.7783C9.94839 14.0751 8.99456 13.68 8 13.68C7.66299 13.6806 7.32755 13.726 7.0025 13.815L6.1625 14.0475C5.84876 14.1316 5.51987 14.1423 5.20133 14.0787C4.88279 14.0152 4.58317 13.8792 4.32569 13.6812C4.06821 13.4832 3.85979 13.2285 3.7166 12.937C3.57341 12.6454 3.4993 12.3248 3.5 12C3.49907 10.7878 3.74301 9.588 4.21719 8.47244C4.69136 7.35688 5.386 6.3486 6.25942 5.5081C7.13285 4.66759 8.16706 4.01219 9.3 3.5812C10.4329 3.15021 11.6413 2.95253 12.8525 3C15.1079 3.11747 17.2398 4.06625 18.8368 5.66322C20.4338 7.26018 21.3825 9.39211 21.5 11.6475C21.5516 12.8595 21.3554 14.0692 20.9234 15.2028C20.4914 16.3363 19.8327 17.3698 18.9875 18.24V18.2325Z" fill="black"/>
</g>
<defs>
<clipPath id="clip0_1324_811">
<rect width="24" height="24" fill="white" transform="translate(0.5)"/>
</clipPath>
</defs>
</svg>
