<svg width="25" height="24" viewBox="0 0 25 24" fill="none" xmlns="http://www.w3.org/2000/svg">
<g clip-path="url(#clip0_1245_1505)">
<path d="M7.25 10.5C6.50832 10.5 5.7833 10.2801 5.16661 9.86801C4.54993 9.45596 4.06928 8.87029 3.78545 8.18506C3.50162 7.49984 3.42736 6.74584 3.57206 6.01841C3.71675 5.29098 4.0739 4.6228 4.59835 4.09835C5.1228 3.5739 5.79098 3.21675 6.51841 3.07206C7.24584 2.92736 7.99984 3.00162 8.68506 3.28545C9.37029 3.56928 9.95596 4.04993 10.368 4.66661C10.7801 5.2833 11 6.00832 11 6.75C10.9989 7.74423 10.6035 8.69742 9.90045 9.40045C9.19742 10.1035 8.24423 10.4989 7.25 10.5ZM7.25 4.5C6.80499 4.5 6.36998 4.63196 5.99997 4.8792C5.62996 5.12643 5.34157 5.47783 5.17127 5.88896C5.00098 6.3001 4.95642 6.7525 5.04324 7.18896C5.13005 7.62541 5.34434 8.02632 5.65901 8.34099C5.97368 8.65566 6.37459 8.86995 6.81105 8.95677C7.24751 9.04359 7.69991 8.99903 8.11104 8.82873C8.52217 8.65843 8.87358 8.37005 9.12081 8.00004C9.36804 7.63002 9.5 7.19501 9.5 6.75C9.49935 6.15347 9.26208 5.58155 8.84027 5.15973C8.41845 4.73792 7.84654 4.50066 7.25 4.5Z" fill="white"/>
<path d="M20.4394 3.00002L3.5 19.9395L4.56055 21L21.5 4.06058L20.4394 3.00002Z" fill="white"/>
<path d="M17.75 21C17.0083 21 16.2833 20.7801 15.6666 20.368C15.0499 19.956 14.5693 19.3703 14.2855 18.6851C14.0016 17.9998 13.9274 17.2458 14.0721 16.5184C14.2168 15.791 14.5739 15.1228 15.0984 14.5984C15.6228 14.0739 16.291 13.7168 17.0184 13.5721C17.7458 13.4274 18.4998 13.5016 19.1851 13.7855C19.8703 14.0693 20.456 14.5499 20.868 15.1666C21.2801 15.7833 21.5 16.5083 21.5 17.25C21.4989 18.2442 21.1035 19.1974 20.4004 19.9004C19.6974 20.6035 18.7442 20.9989 17.75 21ZM17.75 15C17.305 15 16.87 15.132 16.5 15.3792C16.13 15.6264 15.8416 15.9778 15.6713 16.389C15.501 16.8001 15.4564 17.2525 15.5432 17.689C15.6301 18.1254 15.8443 18.5263 16.159 18.841C16.4737 19.1557 16.8746 19.37 17.311 19.4568C17.7475 19.5436 18.1999 19.499 18.611 19.3287C19.0222 19.1584 19.3736 18.87 19.6208 18.5C19.868 18.13 20 17.695 20 17.25C19.9993 16.6535 19.7621 16.0816 19.3403 15.6597C18.9185 15.2379 18.3465 15.0007 17.75 15Z" fill="white"/>
</g>
<defs>
<clipPath id="clip0_1245_1505">
<rect width="24" height="24" fill="white" transform="translate(0.5)"/>
</clipPath>
</defs>
</svg>
