<svg width="25" height="24" viewBox="0 0 25 24" fill="none" xmlns="http://www.w3.org/2000/svg">
<g clip-path="url(#clip0_1324_777)">
<path d="M16.5611 9H21.5V7.5H18.0611L21.5004 4.06095L20.4398 3L17 6.44017V3H15.5V7.94017L14.44 9H13.25V6H11.75V9H10.56L9.5 7.94017V3H8V6.44017L4.5602 3L3.5 4.06095L6.9389 7.5H3.5V9H8.4389L9.5 10.0612V11.25H6.5V12.75H9.5V13.9402L8.44002 15H3.5V16.5H6.94003L3.5 19.9398L4.56058 21.0004L8 17.5612V21H9.5V16.0612L10.5611 15H11.75V18H13.25V15H14.4389L15.5 16.0612V21H17V17.5612L20.439 21.0004L21.5 19.9398L18.06 16.5H21.5V15H16.56L15.5 13.9402V12.75H18.5V11.25H15.5V10.0612L16.5611 9ZM14 13.5H11V10.5H14V13.5Z" fill="black"/>
</g>
<defs>
<clipPath id="clip0_1324_777">
<rect width="24" height="24" fill="white" transform="translate(0.5)"/>
</clipPath>
</defs>
</svg>
