<svg width="25" height="24" viewBox="0 0 25 24" fill="none" xmlns="http://www.w3.org/2000/svg">
<g clip-path="url(#clip0_1208_3145)">
<path d="M23 21H2V22.5H23V21Z" fill="white"/>
<path d="M20.75 8.24999C20.9489 8.24999 21.1397 8.17097 21.2803 8.03032C21.421 7.88966 21.5 7.6989 21.5 7.49999V5.24999C21.4999 5.09585 21.4524 4.94548 21.3638 4.81933C21.2752 4.69319 21.15 4.59739 21.005 4.54499L12.755 1.54499C12.5902 1.48541 12.4098 1.48541 12.245 1.54499L3.995 4.54499C3.85005 4.59739 3.72476 4.69319 3.63619 4.81933C3.54762 4.94548 3.50007 5.09585 3.5 5.24999V7.49999C3.5 7.6989 3.57902 7.88966 3.71967 8.03032C3.86032 8.17097 4.05109 8.24999 4.25 8.24999H5V18H3.5V19.5H21.5V18H20V8.24999H20.75ZM5 5.77499L12.5 3.04499L20 5.77499V6.74999H5V5.77499ZM14 18H11V8.24999H14V18ZM6.5 8.24999H9.5V18H6.5V8.24999ZM18.5 18H15.5V8.24999H18.5V18Z" fill="white"/>
</g>
<defs>
<clipPath id="clip0_1208_3145">
<rect width="24" height="24" fill="white" transform="translate(0.5)"/>
</clipPath>
</defs>
</svg>
