<svg width="25" height="24" viewBox="0 0 25 24" fill="none" xmlns="http://www.w3.org/2000/svg">
<g clip-path="url(#clip0_1245_1522)">
<path d="M9.5 3H5C4.60218 3 4.22064 3.15804 3.93934 3.43934C3.65804 3.72064 3.5 4.10218 3.5 4.5V9C3.5 9.39782 3.65804 9.77936 3.93934 10.0607C4.22064 10.342 4.60218 10.5 5 10.5H9.5C9.89782 10.5 10.2794 10.342 10.5607 10.0607C10.842 9.77936 11 9.39782 11 9V4.5C11 4.10218 10.842 3.72064 10.5607 3.43934C10.2794 3.15804 9.89782 3 9.5 3ZM9.5 9H5V4.5H9.5V9Z" fill="white"/>
<path d="M20 3H15.5C15.1022 3 14.7206 3.15804 14.4393 3.43934C14.158 3.72064 14 4.10218 14 4.5V9C14 9.39782 14.158 9.77936 14.4393 10.0607C14.7206 10.342 15.1022 10.5 15.5 10.5H20C20.3978 10.5 20.7794 10.342 21.0607 10.0607C21.342 9.77936 21.5 9.39782 21.5 9V4.5C21.5 4.10218 21.342 3.72064 21.0607 3.43934C20.7794 3.15804 20.3978 3 20 3ZM20 9H15.5V4.5H20V9Z" fill="white"/>
<path d="M9.5 13.5H5C4.60218 13.5 4.22064 13.658 3.93934 13.9393C3.65804 14.2206 3.5 14.6022 3.5 15V19.5C3.5 19.8978 3.65804 20.2794 3.93934 20.5607C4.22064 20.842 4.60218 21 5 21H9.5C9.89782 21 10.2794 20.842 10.5607 20.5607C10.842 20.2794 11 19.8978 11 19.5V15C11 14.6022 10.842 14.2206 10.5607 13.9393C10.2794 13.658 9.89782 13.5 9.5 13.5ZM9.5 19.5H5V15H9.5V19.5Z" fill="white"/>
<path d="M20 13.5H15.5C15.1022 13.5 14.7206 13.658 14.4393 13.9393C14.158 14.2206 14 14.6022 14 15V19.5C14 19.8978 14.158 20.2794 14.4393 20.5607C14.7206 20.842 15.1022 21 15.5 21H20C20.3978 21 20.7794 20.842 21.0607 20.5607C21.342 20.2794 21.5 19.8978 21.5 19.5V15C21.5 14.6022 21.342 14.2206 21.0607 13.9393C20.7794 13.658 20.3978 13.5 20 13.5ZM20 19.5H15.5V15H20V19.5Z" fill="white"/>
</g>
<defs>
<clipPath id="clip0_1245_1522">
<rect width="24" height="24" fill="white" transform="translate(0.5)"/>
</clipPath>
</defs>
</svg>
