<svg width="24" height="24" viewBox="0 0 24 24" fill="none" xmlns="http://www.w3.org/2000/svg">
<g clip-path="url(#clip0_1357_2087)">
<path d="M22.1364 21.076L16.4723 15.4119C17.8334 13.7779 18.5121 11.6821 18.3672 9.56048C18.2224 7.43885 17.2652 5.45473 15.6947 4.02087C14.1242 2.58702 12.0614 1.81382 9.93541 1.86214C7.80939 1.91045 5.78384 2.77655 4.28012 4.28026C2.77641 5.78397 1.91031 7.80953 1.862 9.93555C1.81369 12.0616 2.58688 14.1244 4.02074 15.6948C5.45459 17.2653 7.43871 18.2225 9.56035 18.3674C11.682 18.5122 13.7778 17.8335 15.4118 16.4725L21.0758 22.1365L22.1364 21.076ZM3.38641 10.1365C3.38641 8.80152 3.78229 7.49648 4.52399 6.38645C5.26569 5.27641 6.31989 4.41125 7.55329 3.90036C8.7867 3.38947 10.1439 3.25579 11.4533 3.51624C12.7626 3.77669 13.9654 4.41957 14.9094 5.36357C15.8534 6.30758 16.4963 7.51031 16.7567 8.81969C17.0172 10.1291 16.8835 11.4863 16.3726 12.7197C15.8617 13.9531 14.9965 15.0073 13.8865 15.749C12.7765 16.4907 11.4714 16.8865 10.1364 16.8865C8.34681 16.8846 6.63107 16.1728 5.36563 14.9073C4.10019 13.6419 3.38839 11.9261 3.38641 10.1365Z" fill="white"/>
</g>
<defs>
<clipPath id="clip0_1357_2087">
<rect width="24" height="24" fill="white"/>
</clipPath>
</defs>
</svg>
