<svg width="25" height="24" viewBox="0 0 25 24" fill="none" xmlns="http://www.w3.org/2000/svg">
<g clip-path="url(#clip0_1245_1512)">
<path d="M11 12.9425L9.0575 11L8 12.0575L11 15.0575L17 9.0575L15.9425 8L11 12.9425Z" fill="white"/>
<path d="M12.5 23L7.86815 20.5303C6.5476 19.8278 5.44328 18.779 4.67372 17.4964C3.90415 16.2138 3.4984 14.7458 3.5 13.25V3.5C3.50042 3.1023 3.65859 2.72101 3.93981 2.4398C4.22102 2.15859 4.60231 2.00042 5 2H20C20.3977 2.00042 20.779 2.15859 21.0602 2.4398C21.3414 2.72101 21.4996 3.1023 21.5 3.5V13.25C21.5016 14.7458 21.0959 16.2138 20.3263 17.4964C19.5567 18.779 18.4524 19.8278 17.1319 20.5303L12.5 23ZM5 3.5V13.25C4.99871 14.4739 5.33072 15.675 5.96041 16.7244C6.5901 17.7738 7.4937 18.632 8.5742 19.2067L12.5 21.3L16.4258 19.2067C17.5063 18.632 18.4099 17.7738 19.0396 16.7244C19.6693 15.675 20.0013 14.4739 20 13.25V3.5H5Z" fill="white"/>
</g>
<defs>
<clipPath id="clip0_1245_1512">
<rect width="24" height="24" fill="white" transform="translate(0.5)"/>
</clipPath>
</defs>
</svg>
