<svg width="45" height="45" viewBox="0 0 45 45" fill="none" xmlns="http://www.w3.org/2000/svg">
<g clip-path="url(#clip0_22_4206)">
<path d="M24.3338 44.1C24.0736 44.1 23.8528 43.9017 23.8303 43.6388C23.6799 41.9597 22.5971 40.1527 20.5749 40.1527C18.7186 40.1527 17.6386 41.1975 16.4996 42.885C16.3449 43.1185 16.0299 43.1775 15.7964 43.0228C15.5644 42.8667 15.5039 42.5503 15.66 42.3197C16.7752 40.6674 18.1421 39.1388 20.5749 39.1388C23.2327 39.1388 24.6474 41.4253 24.8386 43.5488C24.8639 43.8272 24.6586 44.0733 24.3802 44.0986C24.3633 44.0986 24.3478 44.1 24.3338 44.1ZM29.8519 42.7725C29.7619 42.7725 29.6705 42.7472 29.5875 42.6966C26.8861 41.0428 25.2085 38.3836 25.2085 35.7539C25.2085 34.7921 25.4025 33.7317 25.7246 32.9175C25.8286 32.6574 26.1197 32.5336 26.3827 32.6335C26.6428 32.7375 26.7694 33.0314 26.6668 33.2916C26.3391 34.1185 26.2224 35.1056 26.2224 35.7539C26.2224 38.0321 27.7158 40.3608 30.1191 41.8331C30.3568 41.9794 30.4327 42.2902 30.285 42.5292C30.188 42.6853 30.0221 42.7725 29.8519 42.7725ZM11.9743 41.3002C11.8097 41.3002 11.6494 41.22 11.5524 41.0738C11.3977 40.8403 11.461 40.5253 11.6944 40.3721C15.6657 37.7381 18.8761 35.1858 22.1063 32.0977C23.8036 30.4735 26.6485 27.2166 26.6485 23.6475C26.6485 21.4397 25.0805 19.1574 22.4564 19.1574C20.0377 19.1574 18.218 21.8897 16.4588 24.5335C15.5321 25.9242 14.6574 27.2391 13.6871 28.1869C11.0321 30.7828 8.28144 32.3269 5.22004 33.9385C4.97113 34.0692 4.66597 33.9722 4.5366 33.7275C4.40582 33.4786 4.50144 33.1735 4.74894 33.0441C7.73863 31.4705 10.4218 29.9658 12.9797 27.4627C13.8727 26.5908 14.7193 25.3196 15.615 23.9738C17.5219 21.1092 19.4949 18.1477 22.4564 18.1477C25.7147 18.1477 27.6624 20.9461 27.6624 23.6503C27.6624 27.5963 24.6193 31.0964 22.8066 32.8317C19.5314 35.9649 16.2774 38.551 12.2541 41.2186C12.1669 41.2735 12.0699 41.3002 11.9743 41.3002ZM35.3996 39.6844C35.3377 39.6844 35.2744 39.6717 35.2139 39.6492C30.5972 37.8352 29.6269 34.1002 29.6269 31.2877C29.6269 30.0699 29.8674 28.9252 30.1219 27.7144C30.4214 26.28 30.7322 24.7992 30.7322 22.9177C30.7322 19.5385 27.8564 14.8585 22.4564 14.8585C17.9086 14.8585 15.1594 18.3586 13.9261 20.4455C12.7421 22.4494 9.4416 27.3136 4.39457 29.1797C4.13019 29.2725 3.84051 29.1431 3.74347 28.8802C3.64644 28.6172 3.78004 28.3261 4.04301 28.2291C7.33363 27.0127 10.7016 23.9105 13.0543 19.9294C14.3986 17.6569 17.4052 13.846 22.4564 13.846C28.0125 13.846 31.7447 18.5358 31.7447 22.9177C31.7447 24.9033 31.4086 26.5064 31.1119 27.9211C30.87 29.0785 30.6408 30.1739 30.6408 31.2877C30.6408 33.7852 31.4972 37.1011 35.5852 38.7071C35.8453 38.8083 35.9733 39.1022 35.8707 39.3638C35.7919 39.5621 35.6007 39.6844 35.3996 39.6844ZM8.18863 38.5116C8.01847 38.5116 7.85254 38.4244 7.75691 38.2697C7.61066 38.0321 7.68519 37.7199 7.92285 37.5736C12.5213 34.7428 18.7032 30.0544 22.0374 23.7938C22.1682 23.5463 22.4733 23.4521 22.7222 23.5856C22.9683 23.7178 23.0625 24.0244 22.9303 24.2705C19.4878 30.7322 13.1569 35.5416 8.4516 38.4371C8.37144 38.4863 8.28004 38.5116 8.18863 38.5116ZM38.0602 36.2616C37.9927 36.2616 37.9238 36.2475 37.8577 36.2194C34.7105 34.8497 34.0932 32.8992 34.0932 29.9883C34.0932 28.1728 34.3027 27.2616 34.5249 26.2941C34.7625 25.2619 35.0072 24.1946 35.0072 21.7927C35.0072 16.4025 30.2091 10.5849 22.455 10.5849C16.598 10.5849 13.7658 13.5071 11.3653 16.4996C11.101 16.8286 10.8127 17.2125 10.5005 17.6288C9.00988 19.6144 6.96941 22.3327 4.40722 23.3705C4.14566 23.476 3.85176 23.3508 3.74769 23.0921C3.64222 22.8319 3.76738 22.538 4.02613 22.4325C6.32816 21.4988 8.2716 18.9113 9.69051 17.0213C10.0111 16.5952 10.305 16.2014 10.575 15.8667C13.1288 12.6816 16.1494 9.57237 22.4536 9.57237C30.8321 9.57237 36.0183 15.916 36.0183 21.7927C36.0183 24.3085 35.7483 25.4841 35.5107 26.5205C35.3025 27.4289 35.1057 28.2881 35.1057 29.9883C35.1057 32.9625 35.8721 34.2521 38.2599 35.2913C38.5172 35.4024 38.6339 35.7005 38.5228 35.9578C38.4427 36.1477 38.2557 36.2616 38.0602 36.2616ZM38.6382 32.0386C38.5341 32.0386 38.43 32.0077 38.3386 31.9416C38.1136 31.7756 38.0644 31.4592 38.2289 31.2328C39.4903 29.506 40.275 26.4994 40.275 23.3831C40.275 21.6844 40.1386 19.8239 39.1486 17.7131C39.0305 17.46 39.1388 17.1577 39.3919 17.0396C39.645 16.9228 39.9474 17.0283 40.0655 17.2828C41.1427 19.5792 41.2875 21.6549 41.2875 23.3831C41.2875 26.7525 40.4494 29.9124 39.046 31.8319C38.9461 31.9655 38.7928 32.0386 38.6382 32.0386ZM5.24676 16.8624C5.15113 16.8624 5.0541 16.8356 4.96832 16.7794C4.73488 16.6261 4.67019 16.3111 4.82347 16.0777C7.8666 11.4581 13.005 5.31706 22.455 5.31706C29.011 5.31706 35.0818 8.5894 38.693 14.0724C38.8463 14.3072 38.7816 14.6208 38.5482 14.7741C38.3161 14.9274 38.0011 14.8641 37.8464 14.6292C34.4236 9.43174 28.6707 6.32956 22.455 6.32956C13.4944 6.32956 8.58379 12.2119 5.66863 16.636C5.57301 16.7836 5.41129 16.8624 5.24676 16.8624ZM37.6496 8.33627C37.5174 8.33627 37.3866 8.28565 37.2882 8.1844C33.4027 4.21596 28.08 1.93081 22.6843 1.91252C22.6575 1.91252 22.6308 1.91252 22.6041 1.91252C16.8553 1.91252 11.7225 4.05565 7.75691 8.11409C7.56285 8.31377 7.24082 8.31659 7.04254 8.12252C6.84144 7.92706 6.83863 7.60643 7.0341 7.40674C11.1938 3.14862 16.5783 0.900024 22.6041 0.900024C22.6322 0.900024 22.6603 0.900024 22.6885 0.900024C28.3528 0.919712 33.9399 3.31596 38.011 7.47565C38.2078 7.67534 38.2036 7.99596 38.0039 8.19143C37.9055 8.28846 37.7775 8.33627 37.6496 8.33627Z" fill="white"/>
</g>
<defs>
<clipPath id="clip0_22_4206">
<rect width="45" height="45" fill="white"/>
</clipPath>
</defs>
</svg>
